<svg xmlns="http://www.w3.org/2000/svg"><style>:root svg:not(:target){display:none}</style><svg class="header__svg-button-close" fill="none" id="button-close" viewBox="0 0 28 29"><rect width="35.207" height="2.994" rx="1.497" transform="matrix(.69604 .718 -.69604 .718 3.084 1)" fill="#0F805D" fill-opacity=".75"></rect><rect width="35.207" height="2.994" rx="1.497" transform="matrix(.69604 -.718 .69604 .718 .379 26.164)" fill="#0F805D" fill-opacity=".75"></rect></svg><svg class="header__svg-button-open" fill="none" id="button-open" viewBox="0 0 60 60"><path d="M50.125 27.5H9.875A2.375 2.375 0 0 0 7.5 29.875v.25A2.375 2.375 0 0 0 9.875 32.5h40.25a2.375 2.375 0 0 0 2.375-2.375v-.25a2.375 2.375 0 0 0-2.375-2.375ZM50.125 40H9.875A2.375 2.375 0 0 0 7.5 42.375v.25A2.375 2.375 0 0 0 9.875 45h40.25a2.375 2.375 0 0 0 2.375-2.375v-.25A2.375 2.375 0 0 0 50.125 40ZM50.125 15H9.875A2.375 2.375 0 0 0 7.5 17.375v.25A2.375 2.375 0 0 0 9.875 20h40.25a2.375 2.375 0 0 0 2.375-2.375v-.25A2.375 2.375 0 0 0 50.125 15Z" fill="#0F805D"></path></svg><svg class="icon-mail" fill="currentColor" id="icon-mail" viewBox="0 0 32 32"><path d="M23.875 9H8.125c-.298 0-.585.123-.795.342-.211.218-.33.515-.33.825v11.666c0 .31.119.607.33.825.21.22.497.342.795.342h15.75c.298 0 .584-.123.796-.342.21-.219.329-.515.329-.825V10.167c0-.31-.119-.607-.33-.825A1.105 1.105 0 0 0 23.875 9Zm-.866 12.833H9.059l3.937-4.223-.81-.81-4.061 4.357V11.053l6.992 7.216c.21.218.496.34.793.34.297 0 .582-.123.793-.34l7.172-7.396V21.08l-4.14-4.293-.793.822 4.067 4.223ZM8.862 10.167h14.102L15.91 17.44l-7.048-7.274Z"></path></svg><svg class="contacts__icon contacts__icon-tel" fill="currentColor" id="icon-tel" viewBox="0 0 32 32"><path d="m12.562 6.504-.86.26a4.2 4.2 0 0 0-2.945 3.424c-.356 2.482.44 5.384 2.362 8.711 1.916 3.32 4.026 5.458 6.348 6.394a4.2 4.2 0 0 0 4.458-.846l.65-.617a2.4 2.4 0 0 0 .297-3.148l-1.628-2.256a1.8 1.8 0 0 0-1.986-.667l-2.46.753-.064.012c-.272.04-.898-.548-1.678-1.899-.816-1.413-.984-2.24-.76-2.454l1.252-1.167a2.996 2.996 0 0 0 .69-3.42l-.794-1.766a2.4 2.4 0 0 0-2.88-1.314h-.002ZM14.35 8.31l.792 1.766a1.795 1.795 0 0 1-.412 2.052l-1.256 1.168c-.802.761-.536 2.06.544 3.93 1.015 1.758 1.942 2.627 2.938 2.476l.148-.031 2.506-.765a.6.6 0 0 1 .662.222l1.628 2.256a1.2 1.2 0 0 1-.148 1.575l-.652.617a3 3 0 0 1-3.183.603c-2.038-.82-3.964-2.773-5.758-5.88-1.799-3.114-2.527-5.762-2.214-7.94a3 3 0 0 1 2.104-2.447l.86-.26a1.2 1.2 0 0 1 1.44.658h.001Z"></path></svg><svg class="icon-logo-pic" fill="none" id="logo-pic" viewBox="0 0 58 60"><path d="M16.07 21.282s-2.078 1.29-2.54 3.413c-.464 2.122 0 4.447 0 4.447s-3.26 1.39-3.26 5.765c0 4.374 2.75 5.61 2.75 5.61s.032 5.163 3.108 7.947 6.304 2.798 6.304 2.798 1.68 3.673 6.618 3.673c4.939 0 6.618-3.673 6.618-3.673s3.343-.505 6.305-2.798c2.96-2.291 2.88-7.947 2.88-7.947s2.978-1.235 2.978-5.61-3.26-5.764-3.26-5.764.464-2.326 0-4.448c-.465-2.122-2.542-3.413-2.542-3.413" fill="#B22EC8"></path><path d="M44.666 27.857c0-8.933-7-11.449-15.634-11.449s-15.634 2.517-15.634 11.449c0 8.931 7 16.173 15.634 16.173s15.634-7.242 15.634-16.173Z" fill="#B22EC8"></path><path d="M29.53 54.923s4.227-3.058 3.95-10.092c1.819-1.957 2.383-4.586.731-7.781 2.79-4.113 2.5-8.563-.838-11.937 1.376-2.053.656-3.831-.899-5.167 0 0 4.475 2.27 7.903-.976 0 0 7.204 5.358 4.194 10.172 0 0 7.954 5.561.282 11.375 0 0 1.12 8.863-8.99 10.709 0 0-2.662 3.117-6.334 3.697Z" fill="#6A107A"></path><path class="leaves" d="M44.934 9.385c-3.44 16.606-13.997 10.944-15.431 8.024-1.434-2.92-.049-14.548 15.43-8.025v.001Z" fill="#0F805D"></path><path class="leaves" d="M13.166 9.385c3.44 16.606 13.997 10.944 15.431 8.024 1.434-2.92.049-14.548-15.431-8.025v.001Z" fill="#0F805D"></path><path d="M44.934 9.385c-3.44 16.606-13.997 10.944-15.431 8.024-1.434-2.92-.049-14.548 15.43-8.025v.001Z" stroke="#000" stroke-width="2" stroke-miterlimit="10" stroke-linecap="round" stroke-linejoin="round"></path><path d="M36.71 12.745c-2.52 1.002-5.75 2.613-7.18 4.713M13.165 9.384c3.44 16.606 13.997 10.944 15.431 8.024 1.434-2.92.049-14.548-15.431-8.025v.001Z" stroke="#000" stroke-width="2" stroke-miterlimit="10" stroke-linecap="round" stroke-linejoin="round"></path><path d="M21.39 12.745c2.521 1.002 5.75 2.613 7.18 4.713m-12.5 3.824s-2.078 1.29-2.54 3.413c-.464 2.122 0 4.447 0 4.447s-3.26 1.39-3.26 5.765c0 4.374 2.75 5.61 2.75 5.61s.032 5.163 3.108 7.947 6.304 2.798 6.304 2.798 1.68 3.673 6.618 3.673c4.939 0 6.618-3.673 6.618-3.673s3.343-.505 6.305-2.798c2.96-2.291 2.88-7.947 2.88-7.947s2.978-1.235 2.978-5.61-3.26-5.764-3.26-5.764.464-2.326 0-4.448c-.465-2.122-2.542-3.413-2.542-3.413" stroke="#000" stroke-width="2" stroke-miterlimit="10" stroke-linecap="round" stroke-linejoin="round"></path><path d="M34.03 24.563s-2.108 2.305-4.709 2.305m-4.887-2.305s2.107 2.305 4.708 2.305m11.186 6.069c0 2.41-2 4.363-4.465 4.363m-4.637-4.363c0 2.41 2 4.363 4.465 4.363m-8.396-4.363c0 2.41-2 4.363-4.466 4.363m-4.637-4.363c0 2.41 2 4.363 4.466 4.363m11.099 7.585c-.841 1.157-2.546 1.95-4.512 1.95m-4.804-2.092c.802 1.234 2.565 2.091 4.61 2.091m-4.65-1.792c0 1.033-.62 1.965-1.61 2.62m11.014-2.62c0 1.127.736 2.133 1.886 2.79" stroke="#000" stroke-width="2" stroke-miterlimit="10" stroke-linecap="round" stroke-linejoin="round"></path><path d="M18.859 35.56c0 1.972-1.338 3.637-3.176 4.178m4.465-15.205c0 2.58-1.999 4.671-4.466 4.671m21.674-4.67c0 2.579 2 4.67 4.466 4.67m-2.148 6.356c0 1.883 1.222 3.487 2.933 4.1" stroke="#000" stroke-width="2" stroke-miterlimit="10" stroke-linecap="round" stroke-linejoin="round"></path></svg><svg class="icon-logo-word" fill="none" id="logo-word" viewBox="0 0 65 36"><path class="word" fill="#0F805D" d="M9.48 31.2c-.614 0-.974-.307-1.08-.92a22.118 22.118 0 0 1-.2-2.88A431.6 431.6 0 0 1 8 21c-.027-2.24-.04-3.867-.04-4.88a3.443 3.443 0 0 0-1.4 1.12c-.32.453-.627 1.04-.92 1.76-.48 1.307-.72 2.6-.72 3.88v1c0 .16-.014.653-.04 1.48a26.92 26.92 0 0 1-.24 2.72c-.16 1.333-.827 2.333-2 3-.187.107-.427.16-.72.16-.347 0-.64-.08-.88-.24-.214-.187-.28-.44-.2-.76.053-.187.133-.32.24-.4.106-.08.253-.16.44-.24.213-.08.373-.16.48-.24.4-.373.6-.88.6-1.52l.04-3.36c.053-1.307.12-2.307.2-3 .08-.72.28-1.547.6-2.48.106-.347.36-.893.76-1.64.4-.773.693-1.267.88-1.48-1.414-.693-2.4-1.56-2.96-2.6-.534-1.04-.8-2.56-.8-4.56 0-1.573.28-3.12.84-4.64.56-1.493 1.48-2.44 2.76-2.84l1.76-.6c.24-.107.506-.16.8-.16.56 0 1.2.24 1.92.72.453.267.68.707.68 1.32-.16 2.24-.24 3.933-.24 5.08V16.48c0 2.827.026 4.96.08 6.4.026 1.093.066 2.067.12 2.92.053.853.093 1.56.12 2.12l.12 2.2v.24c0 .347-.054.573-.16.68-.107.107-.32.16-.64.16ZM7.8 2.16a22.2 22.2 0 0 1-.92.32c-.454.16-.854.347-1.2.56-.4.187-.774.587-1.12 1.2a8.952 8.952 0 0 0-.76 1.88c-.187.667-.267 1.173-.24 1.52l.08 1.76c0 .827.013 1.48.04 1.96.026.747.24 1.373.64 1.88.426.48 1.013.813 1.76 1 .293.08.626.2 1 .36.4.133.693.24.88.32L7.8 2.16Zm7.637 29.16c-.027-.107-.08-.293-.16-.56a2.057 2.057 0 0 1-.04-.68c.053-3.093.133-5.4.24-6.92.026-.56.04-1.387.04-2.48 0-1.973-.094-4.36-.28-7.16-.16-3.413-.24-6-.24-7.76 0-.4.16-.76.48-1.08.32-.32.706-.48 1.16-.48 1.52 0 2.84.12 3.96.36.533.107.88.293 1.04.56.16.24.213.653.16 1.24-.374.24-.76.36-1.16.36a3.37 3.37 0 0 1-.6-.08c-.24-.053-.88-.107-1.92-.16h-.08c-.374 0-.56.2-.56.6-.134 3.867-.2 6.067-.2 6.6.053 2.773.106 4.867.16 6.28 0 .187.013.413.04.68.026.267.026.493 0 .68-.08 1.227-.12 2.52-.12 3.88 0 2.213.04 3.76.12 4.64-.027.587-.12.987-.28 1.2-.16.24-.454.36-.88.36-.107 0-.4-.027-.88-.08Zm13.773.44c-.694 0-1.334-.227-1.92-.68-.587-.427-1.067-1.013-1.44-1.76-.774-1.627-1.254-3.4-1.44-5.32-.24-1.813-.36-3.56-.36-5.24 0-.32.013-.587.04-.8v-.72c0-.133-.014-.2-.04-.2v-.72l.04-2.8c.026-.853.133-2.213.32-4.08.133-1.28.44-2.52.92-3.72.187-.533.427-.933.72-1.2.293-.293.627-.44 1-.44 1.066 0 2.026.2 2.88.6a5.868 5.868 0 0 1 2.16 1.6c.533.667.986 1.493 1.36 2.48.373.96.64 1.987.8 3.08.16 1.12.24 2.307.24 3.56v.32c0 .827.013 1.573.04 2.24l.04 2.28c0 7.68-1.787 11.52-5.36 11.52Zm-.16-1.68c.48 0 .92-.187 1.32-.56.4-.4.706-.933.92-1.6.507-1.36.813-2.827.92-4.4.133-1.36.2-2.533.2-3.52 0-1.2-.093-2.773-.28-4.72-.16-2.053-.24-3.587-.24-4.6v-.72c-.053-1.013-.4-1.893-1.04-2.64-.614-.747-1.373-1.12-2.28-1.12-.907 0-1.507.52-1.8 1.56-.267.827-.4 1.893-.4 3.2 0 .507.013.933.04 1.28v1.08l-.08 1.84c-.053.56-.08 1.173-.08 1.84 0 1.44.04 2.867.12 4.28.107 2 .373 3.947.8 5.84.426 1.973 1.053 2.96 1.88 2.96Zm23.843 5.84c-.213.053-.373.08-.48.08-.32 0-.547-.2-.68-.6-.107-.32-.16-.72-.16-1.2l.04-2.76c0-.16-.013-.307-.04-.44l-.08-.4h-4.6c.267 0-.373.133-1.92.4-1.52.24-2.707.4-3.56.48l-1.8.16-2 .2v.88c.027.347.027.76 0 1.24v.2c0 .427-.107.747-.32.96-.213.213-.413.32-.6.32-.107 0-.267-.053-.48-.16-.48-.347-.747-.827-.8-1.44l-.12-2.92c-.053-1.04.373-1.56 1.28-1.56.507-.027.907-.16 1.2-.4.293-.24.64-.613 1.04-1.12.4-.533.707-1.12.92-1.76.24-.667.467-1.467.68-2.4.24-1.013.413-2 .52-2.96.107-.96.24-2.333.4-4.12.24-2.8.36-5.613.36-8.44l-.04-2.24c0-.507.147-.92.44-1.24.293-.347.693-.52 1.2-.52.16 0 .28.013.36.04 1.227.213 2.227.347 3 .4h.2c.347 0 .547-.067.6-.2.24-.32.533-.48.88-.48.24 0 .453.053.64.16.427.16.707.56.84 1.2l-.2 6.84c0 3.707.013 6.48.04 8.32 0 .96.027 2.427.08 4.4l.04 2.2c0 .213.013.413.04.6l.08.56c.533.053.933.08 1.2.08.213 0 .373-.013.48-.04a1.942 1.942 0 0 1 1.56.44c.48.347.72.8.72 1.36 0 .72-.053 1.8-.16 3.24 0 .373-.027.907-.08 1.6-.053.56-.293.907-.72 1.04Zm-11.52-6.36c1.493-.133 2.667-.253 3.52-.36a17.48 17.48 0 0 0 2.6-.6c.267-3.227.4-6.68.4-10.36 0-3.413-.133-7.16-.4-11.24-.693-.027-1.987-.093-3.88-.2l-.04 1.88c-.213 4.107-.36 7.173-.44 9.2a33.269 33.269 0 0 1-1.56 8.96c-.053.16-.173.56-.36 1.2a4.45 4.45 0 0 1-.76 1.6l.92-.08Zm22.795 1.8c-.614 0-1.067-.093-1.36-.28-.294-.187-.44-.533-.44-1.04 0-.8-.134-2.16-.4-4.08l-.16-.84-3.96-.6c-.16.613-.387 1.853-.68 3.72-.16 1.307-.414 2.173-.76 2.6-.187.24-.454.36-.8.36a1.5 1.5 0 0 1-.88-.28c-.267-.213-.4-.467-.4-.76l.08-.2.04-.16c1.76-6.853 3.093-13.613 4-20.28 0-.107.013-.28.04-.52.026-.267.053-.64.08-1.12.08-.987.16-1.773.24-2.36.106-.587.266-1.027.48-1.32h1.36c.373 0 .693.093.96.28.266.16.4.4.4.72 0 2.027.28 5.04.84 9.04.533 4.107.8 6.987.8 8.64 0 .16.066.573.2 1.24.133.613.2 1.013.2 1.2 0 .187.133.987.4 2.4.24 1.28.36 2.107.36 2.48v.04c0 .587-.214.96-.64 1.12Zm-2.64-7.68c-.08-.4-.12-.893-.12-1.48 0-2.4-.214-5.467-.64-9.2l-.4-4.16c-1.147 6.267-1.934 11-2.36 14.2.4.267 1.573.48 3.52.64Z"></path></svg><svg aria-label="Логотип магазина Ягода" fill="none" id="logo" viewBox="0 0 133 60"><path d="M16.07 21.282s-2.078 1.29-2.54 3.413c-.464 2.122 0 4.447 0 4.447s-3.26 1.39-3.26 5.765c0 4.374 2.75 5.61 2.75 5.61s.032 5.163 3.108 7.947 6.304 2.798 6.304 2.798 1.68 3.673 6.618 3.673c4.939 0 6.618-3.673 6.618-3.673s3.343-.505 6.305-2.798c2.96-2.291 2.88-7.947 2.88-7.947s2.978-1.235 2.978-5.61-3.26-5.764-3.26-5.764.464-2.326 0-4.448c-.465-2.122-2.542-3.413-2.542-3.413" fill="#B22EC8"></path><path d="M44.666 27.857c0-8.933-7-11.449-15.634-11.449s-15.634 2.517-15.634 11.449c0 8.931 7 16.173 15.634 16.173s15.634-7.242 15.634-16.173Z" fill="#B22EC8"></path><path d="M29.53 54.923s4.227-3.058 3.95-10.092c1.819-1.957 2.383-4.586.731-7.781 2.79-4.113 2.5-8.563-.838-11.937 1.376-2.053.656-3.831-.899-5.167 0 0 4.475 2.27 7.903-.976 0 0 7.204 5.358 4.194 10.172 0 0 7.954 5.561.282 11.375 0 0 1.12 8.863-8.99 10.709 0 0-2.662 3.117-6.334 3.697Z" fill="#6A107A"></path><g class="header__logo-leaves" fill="#0F805D"><path class="header__logo-leaves" d="M44.934 9.385c-3.44 16.606-13.997 10.944-15.431 8.024-1.434-2.92-.049-14.548 15.43-8.025v.001Z"></path><path class="header__logo-leaves" d="M13.166 9.385c3.44 16.606 13.997 10.944 15.431 8.024 1.434-2.92.049-14.548-15.431-8.025v.001Z"></path></g><path d="M44.934 9.385c-3.44 16.606-13.997 10.944-15.431 8.024-1.434-2.92-.049-14.548 15.43-8.025v.001Z" stroke="#000" stroke-width="2" stroke-miterlimit="10" stroke-linecap="round" stroke-linejoin="round"></path><path d="M36.71 12.745c-2.52 1.002-5.75 2.613-7.18 4.713M13.165 9.384c3.44 16.606 13.997 10.944 15.431 8.024 1.434-2.92.049-14.548-15.431-8.025v.001Z" stroke="#000" stroke-width="2" stroke-miterlimit="10" stroke-linecap="round" stroke-linejoin="round"></path><path d="M21.39 12.745c2.521 1.002 5.75 2.613 7.18 4.713m-12.5 3.824s-2.078 1.29-2.54 3.413c-.464 2.122 0 4.447 0 4.447s-3.26 1.39-3.26 5.765c0 4.374 2.75 5.61 2.75 5.61s.032 5.163 3.108 7.947 6.304 2.798 6.304 2.798 1.68 3.673 6.618 3.673c4.939 0 6.618-3.673 6.618-3.673s3.343-.505 6.305-2.798c2.96-2.291 2.88-7.947 2.88-7.947s2.978-1.235 2.978-5.61-3.26-5.764-3.26-5.764.464-2.326 0-4.448c-.465-2.122-2.542-3.413-2.542-3.413" stroke="#000" stroke-width="2" stroke-miterlimit="10" stroke-linecap="round" stroke-linejoin="round"></path><path d="M34.03 24.563s-2.108 2.305-4.709 2.305m-4.887-2.305s2.107 2.305 4.708 2.305m11.186 6.069c0 2.41-2 4.363-4.465 4.363m-4.637-4.363c0 2.41 2 4.363 4.465 4.363m-8.396-4.363c0 2.41-2 4.363-4.466 4.363m-4.637-4.363c0 2.41 2 4.363 4.466 4.363m11.099 7.585c-.841 1.157-2.546 1.95-4.512 1.95m-4.804-2.092c.802 1.234 2.565 2.091 4.61 2.091m-4.65-1.792c0 1.033-.62 1.965-1.61 2.62m11.014-2.62c0 1.127.736 2.133 1.886 2.79" stroke="#000" stroke-width="2" stroke-miterlimit="10" stroke-linecap="round" stroke-linejoin="round"></path><path d="M18.859 35.56c0 1.972-1.338 3.637-3.176 4.178m4.465-15.205c0 2.58-1.999 4.671-4.466 4.671m21.674-4.67c0 2.579 2 4.67 4.466 4.67m-2.148 6.356c0 1.883 1.222 3.487 2.933 4.1" stroke="#000" stroke-width="2" stroke-miterlimit="10" stroke-linecap="round" stroke-linejoin="round"></path><path d="M76.48 45.2c-.614 0-.974-.307-1.08-.92a22.123 22.123 0 0 1-.2-2.88c-.08-2.053-.147-4.187-.2-6.4-.027-2.24-.04-3.867-.04-4.88a3.444 3.444 0 0 0-1.4 1.12c-.32.453-.627 1.04-.92 1.76-.48 1.307-.72 2.6-.72 3.88v1c0 .16-.014.653-.04 1.48a26.88 26.88 0 0 1-.24 2.72c-.16 1.333-.827 2.333-2 3-.187.107-.427.16-.72.16-.347 0-.64-.08-.88-.24-.214-.187-.28-.44-.2-.76.053-.187.133-.32.24-.4.106-.08.253-.16.44-.24.213-.08.373-.16.48-.24.4-.373.6-.88.6-1.52l.04-3.36c.053-1.307.12-2.307.2-3 .08-.72.28-1.547.6-2.48.106-.347.36-.893.76-1.64.4-.773.693-1.267.88-1.48-1.414-.693-2.4-1.56-2.96-2.6-.534-1.04-.8-2.56-.8-4.56 0-1.573.28-3.12.84-4.64.56-1.493 1.48-2.44 2.76-2.84l1.76-.6c.24-.107.506-.16.8-.16.56 0 1.2.24 1.92.72.453.267.68.707.68 1.32-.16 2.24-.24 3.933-.24 5.08V30.48c0 2.827.026 4.96.08 6.4.026 1.093.066 2.067.12 2.92.053.853.093 1.56.12 2.12l.12 2.2v.24c0 .347-.054.573-.16.68-.107.107-.32.16-.64.16ZM74.8 16.16c-.134.053-.44.16-.92.32-.454.16-.854.347-1.2.56-.4.187-.774.587-1.12 1.2a8.954 8.954 0 0 0-.76 1.88c-.187.667-.267 1.173-.24 1.52l.08 1.76c0 .827.013 1.48.04 1.96.026.747.24 1.373.64 1.88.426.48 1.013.813 1.76 1 .293.08.626.2 1 .36.4.133.693.24.88.32l-.16-12.76Zm7.637 29.16c-.027-.107-.08-.293-.16-.56a2.057 2.057 0 0 1-.04-.68c.053-3.093.133-5.4.24-6.92.026-.56.04-1.387.04-2.48 0-1.973-.094-4.36-.28-7.16-.16-3.413-.24-6-.24-7.76 0-.4.16-.76.48-1.08.32-.32.706-.48 1.16-.48 1.52 0 2.84.12 3.96.36.533.107.88.293 1.04.56.16.24.213.653.16 1.24-.374.24-.76.36-1.16.36-.134 0-.334-.027-.6-.08-.24-.053-.88-.107-1.92-.16h-.08c-.374 0-.56.2-.56.6-.134 3.867-.2 6.067-.2 6.6.053 2.773.106 4.867.16 6.28 0 .187.013.413.04.68.026.267.026.493 0 .68-.08 1.227-.12 2.52-.12 3.88 0 2.213.04 3.76.12 4.64-.027.587-.12.987-.28 1.2-.16.24-.454.36-.88.36-.107 0-.4-.027-.88-.08Zm13.773.44c-.694 0-1.334-.227-1.92-.68-.587-.427-1.067-1.013-1.44-1.76-.773-1.627-1.253-3.4-1.44-5.32-.24-1.813-.36-3.56-.36-5.24 0-.32.013-.587.04-.8v-.72c0-.133-.014-.2-.04-.2v-.72l.04-2.8c.026-.853.133-2.213.32-4.08.133-1.28.44-2.52.92-3.72.186-.533.427-.933.72-1.2.293-.293.627-.44 1-.44 1.067 0 2.026.2 2.88.6a5.868 5.868 0 0 1 2.16 1.6c.533.667.987 1.493 1.36 2.48.373.96.64 1.987.8 3.08.16 1.12.24 2.307.24 3.56v.32c0 .827.013 1.573.04 2.24l.04 2.28c0 7.68-1.787 11.52-5.36 11.52Zm-.16-1.68c.48 0 .92-.187 1.32-.56.4-.4.706-.933.92-1.6.506-1.36.813-2.827.92-4.4.133-1.36.2-2.533.2-3.52 0-1.2-.093-2.773-.28-4.72-.16-2.053-.24-3.587-.24-4.6v-.72c-.053-1.013-.4-1.893-1.04-2.64-.613-.747-1.373-1.12-2.28-1.12-.907 0-1.507.52-1.8 1.56-.267.827-.4 1.893-.4 3.2 0 .507.013.933.04 1.28v1.08l-.08 1.84c-.053.56-.08 1.173-.08 1.84 0 1.44.04 2.867.12 4.28.106 2 .373 3.947.8 5.84.427 1.973 1.053 2.96 1.88 2.96Zm23.843 5.84c-.213.053-.373.08-.48.08-.32 0-.547-.2-.68-.6-.107-.32-.16-.72-.16-1.2l.04-2.76c0-.16-.013-.307-.04-.44l-.08-.4h-4.6c.267 0-.373.133-1.92.4-1.52.24-2.707.4-3.56.48l-1.8.16-2 .2v.88c.027.347.027.76 0 1.24v.2c0 .427-.107.747-.32.96-.213.213-.413.32-.6.32-.107 0-.267-.053-.48-.16-.48-.347-.747-.827-.8-1.44l-.12-2.92c-.053-1.04.373-1.56 1.28-1.56.507-.027.907-.16 1.2-.4.293-.24.64-.613 1.04-1.12.4-.533.707-1.12.92-1.76.24-.667.467-1.467.68-2.4.24-1.013.413-2 .52-2.96.107-.96.24-2.333.4-4.12.24-2.8.36-5.613.36-8.44l-.04-2.24c0-.507.147-.92.44-1.24.293-.347.693-.52 1.2-.52.16 0 .28.013.36.04 1.227.213 2.227.347 3 .4h.2c.347 0 .547-.067.6-.2.24-.32.533-.48.88-.48.24 0 .453.053.64.16.427.16.707.56.84 1.2l-.2 6.84c0 3.707.013 6.48.04 8.32 0 .96.027 2.427.08 4.4l.04 2.2c0 .213.013.413.04.6l.08.56c.533.053.933.08 1.2.08.213 0 .373-.013.48-.04a1.941 1.941 0 0 1 1.56.44c.48.347.72.8.72 1.36 0 .72-.053 1.8-.16 3.24 0 .373-.027.907-.08 1.6-.053.56-.293.907-.72 1.04Zm-11.52-6.36c1.493-.133 2.667-.253 3.52-.36a17.47 17.47 0 0 0 2.6-.6c.267-3.227.4-6.68.4-10.36 0-3.413-.133-7.16-.4-11.24-.693-.027-1.987-.093-3.88-.2l-.04 1.88a820.22 820.22 0 0 0-.44 9.2 33.292 33.292 0 0 1-1.56 8.96c-.053.16-.173.56-.36 1.2a4.444 4.444 0 0 1-.76 1.6l.92-.08Zm22.795 1.8c-.614 0-1.067-.093-1.36-.28-.294-.187-.44-.533-.44-1.04 0-.8-.134-2.16-.4-4.08l-.16-.84-3.96-.6c-.16.613-.387 1.853-.68 3.72-.16 1.307-.414 2.173-.76 2.6-.187.24-.454.36-.8.36a1.5 1.5 0 0 1-.88-.28c-.267-.213-.4-.467-.4-.76l.08-.2.04-.16c1.76-6.853 3.093-13.613 4-20.28 0-.107.013-.28.04-.52.026-.267.053-.64.08-1.12.08-.987.16-1.773.24-2.36.106-.587.266-1.027.48-1.32h1.36c.373 0 .693.093.96.28.266.16.4.4.4.72 0 2.027.28 5.04.84 9.04.533 4.107.8 6.987.8 8.64 0 .16.066.573.2 1.24.133.613.2 1.013.2 1.2 0 .187.133.987.4 2.4.24 1.28.36 2.107.36 2.48v.04c0 .587-.214.96-.64 1.12Zm-2.64-7.68c-.08-.4-.12-.893-.12-1.48 0-2.4-.214-5.467-.64-9.2l-.4-4.16c-1.147 6.267-1.934 11-2.36 14.2.4.267 1.573.48 3.52.64Z" fill="#0F805D" class="header__logo-word"></path></svg><svg fill="none" id="telegram" viewBox="0 0 40 40"><circle cx="20" cy="20" r="19.5" stroke="#0F805D"></circle><path d="M28.945 9.765a1.552 1.552 0 0 0-1.572-.244L9.456 16.754a1.543 1.543 0 0 0 .078 2.884L13.4 20.98l2.095 6.926c.004.014.017.023.023.036a.488.488 0 0 0 .319.293c.01.004.017.013.027.015h.006l.003.001a.449.449 0 0 0 .233-.012c.008-.002.016-.002.025-.005a.496.496 0 0 0 .191-.122c.006-.007.016-.008.022-.014l3.013-3.326 4.397 3.405c.267.21.596.322.935.322.734 0 1.367-.514 1.518-1.23l3.262-16.019a1.533 1.533 0 0 0-.524-1.486v.001Zm-12.357 12.53-.707 3.437-1.475-4.878 7.315-3.81-4.997 4.998a.498.498 0 0 0-.136.253Zm8.639 4.772a.54.54 0 0 1-.347.4.525.525 0 0 1-.514-.079L19.603 23.7a.5.5 0 0 0-.676.06L16.83 26.07l.706-3.427 7.189-7.19a.5.5 0 0 0-.584-.797l-10.363 5.398-3.917-1.362A.527.527 0 0 1 9.5 18.2a.532.532 0 0 1 .334-.518l17.914-7.233a.536.536 0 0 1 .558.086.523.523 0 0 1 .182.518l-3.261 16.015Z" fill="#0F805D"></path></svg><svg class="socials__svg socials__vk" fill="none" id="vkontakte" viewBox="0 0 40 40"><circle cx="20" cy="20" r="19.5" stroke="#0F805D"></circle><path d="M9 15.926c0-.704.439-1.084 1.316-1.139l3.381.02c.227 0 .378.104.454.311.348 1.036.737 1.93 1.168 2.682a32.6 32.6 0 0 0 1.69 2.6c.061.124.16.186.296.186a.28.28 0 0 0 .25-.145l.067-.228.023-3.583c0-.248-.064-.414-.193-.497-.128-.083-.367-.145-.715-.186-.272-.042-.408-.193-.408-.456 0-.055.008-.096.023-.124.317-.898 1.225-1.346 2.723-1.346l1.27-.021c.575 0 1.052.131 1.43.393.378.263.567.677.567 1.243v4.701a.55.55 0 0 0 .295.104c.227 0 .424-.124.59-.373 1.664-2.126 2.564-3.548 2.7-4.266 0-.014.015-.048.046-.104.105-.207.28-.386.521-.538.242-.152.454-.256.636-.31a.487.487 0 0 1 .204-.042h3.517l.227.02c.303 0 .537.132.703.394a.74.74 0 0 1 .125.27c.023.096.038.192.046.29l.011.165v.145c-.106.566-.374 1.17-.806 1.812-.43.642-.979 1.336-1.645 2.081-.665.746-1.081 1.236-1.248 1.47-.136.166-.204.318-.204.456 0 .11.06.235.182.373l3.313 3.81c.181.222.272.463.272.726 0 .317-.136.58-.409.787a1.788 1.788 0 0 1-.975.352l-.386.02h-3.449a.756.756 0 0 0-.09.01.763.763 0 0 1-.092.011c-.332 0-.642-.131-.93-.393-.106-.11-.817-.925-2.133-2.444a1.167 1.167 0 0 0-.317-.27c-.061.221-.14.539-.239.953-.098.414-.17.711-.215.89l-.068.353c-.152.483-.47.773-.953.87l-.318.02h-2.224c-1.255 0-2.507-.524-3.755-1.574-1.248-1.049-2.371-2.405-3.37-4.07-.998-1.663-1.928-3.6-2.79-5.808A1.532 1.532 0 0 1 9 15.926Zm13.637 5.364c-.318 0-.605-.08-.862-.238-.257-.159-.386-.377-.386-.653v-4.763c0-.276-.075-.473-.227-.59-.151-.117-.416-.176-.794-.176l-1.293.041c-.65 0-1.142.104-1.475.31.665.29.998.76.998 1.41v3.644c-.03.345-.181.632-.454.86a1.38 1.38 0 0 1-.907.341c-.454 0-.802-.2-1.044-.6-1.18-1.63-2.057-3.176-2.632-4.64l-.204-.538-3.018-.02c-.197 0-.307.01-.33.03-.022.021-.033.08-.033.177 0 .124.015.255.045.393l.477 1.16c1.27 2.996 2.65 5.357 4.14 7.083 1.49 1.726 2.954 2.588 4.391 2.588h2.27c.09 0 .158-.024.204-.072.045-.048.083-.142.113-.28l.045-.207.431-1.822c.122-.249.227-.414.318-.497a.846.846 0 0 1 .59-.228c.363 0 .734.2 1.112.6l1.929 2.237c.12.18.25.27.385.27h3.744c.454 0 .681-.104.681-.311a.375.375 0 0 0-.068-.207l-3.29-3.749c-.257-.29-.386-.6-.386-.932 0-.331.121-.649.363-.952.197-.277.579-.736 1.146-1.378a31.187 31.187 0 0 0 1.486-1.801c.424-.56.704-1.067.84-1.523l.068-.269a.295.295 0 0 1-.023-.134.458.458 0 0 0-.022-.156h-3.563a1.235 1.235 0 0 0-.544.373l-.137.393c-.378.953-1.369 2.424-2.972 4.412a1.642 1.642 0 0 1-1.112.414Z" fill="#0F805D"></path></svg><svg class="socials__svg socials__youtube" fill="none" id="youtube" viewBox="0 0 40 40"><circle cx="20" cy="20" r="19.5" stroke="#0F805D"></circle><path d="m23.206 19.69-4.5-3a.375.375 0 0 0-.581.31v6a.366.366 0 0 0 .197.328.42.42 0 0 0 .178.047.337.337 0 0 0 .206-.066l4.5-3a.367.367 0 0 0 0-.618Zm-4.331 2.607v-4.594L22.325 20l-3.45 2.297Zm10.734-7.66a1.914 1.914 0 0 0-1.134-1.274c-3.169-1.22-8.26-1.2-8.475-1.2-.216 0-5.306-.02-8.475 1.2a1.914 1.914 0 0 0-1.134 1.274c-.235.91-.516 2.579-.516 5.363 0 2.784.281 4.453.516 5.363a1.913 1.913 0 0 0 1.134 1.274c3.169 1.22 8.26 1.2 8.475 1.2h.066c.646 0 5.4-.037 8.409-1.2a1.913 1.913 0 0 0 1.134-1.274c.235-.91.516-2.579.516-5.363 0-2.784-.281-4.453-.516-5.363Zm-.73 10.538a1.124 1.124 0 0 1-.676.76c-3.037 1.171-8.147 1.152-8.203 1.152-.056 0-5.166.02-8.203-1.153a1.125 1.125 0 0 1-.675-.759c-.225-.872-.497-2.475-.497-5.175 0-2.7.272-4.303.497-5.175a1.123 1.123 0 0 1 .675-.76c3.037-1.171 8.147-1.152 8.203-1.152.056 0 5.166-.02 8.203 1.153a1.124 1.124 0 0 1 .675.759c.225.872.497 2.475.497 5.175 0 2.7-.272 4.303-.497 5.175Z" fill="#0F805D"></path></svg></svg>