<svg class="footer__academy-icon" width="26" height="32" fill="currentColor" xmlns="http://www.w3.org/2000/svg"><path d="M13.145 0h-.097L0 1.314v23.179L13.048 32 26 24.493V1.313L13.145 0Zm11.019 11.355L13.048 4.974V4.88h-.096l-.097-.094v.094L1.836 11.355V2.909l11.116-1.126 11.212 1.126v8.446ZM12.952 6.38l11.115 6.288-4.35 2.44-6.862-3.942v1.314l5.703 3.284-.87.47-4.833-2.816v1.314l3.673 2.159-.773.469-2.9-1.69v1.314l1.836 1.033-1.74 1.032-11.018-6.288 11.019-6.38Zm-11.116 7.79 11.019 6.38v.939l-7.636-4.41v1.313l7.733 4.504v1.033l-7.733-4.41v1.313l7.733 4.504 7.829-4.598v-4.88l3.286-1.877v9.385l-11.115 6.475L1.836 23.46v-9.29Z"/></svg>