<svg width="32" height="32" fill="none" xmlns="http://www.w3.org/2000/svg"><path d="M21.487 9.979c-1.24-2.101-3-3.847-5.111-5.07L16 4.692l-.376.217a14.113 14.113 0 0 0-7.05 12.717c.075 2.196.914 4.044 2.429 5.344 1.159.995 2.646 1.603 4.247 1.748v2.59h1.5v-12h-1.5v7.9c-2.534-.294-5.057-2.084-5.177-5.633A12.67 12.67 0 0 1 16 6.434a12.67 12.67 0 0 1 5.927 11.14c-.096 2.84-1.73 4.554-3.677 5.276v1.587a7.322 7.322 0 0 0 2.747-1.467c1.515-1.3 2.354-3.148 2.43-5.344a14.107 14.107 0 0 0-1.94-7.647Z" fill="#000"/></svg>