<svg class="socials__svg socials__youtube" id="youtube" width="40" height="40" viewBox="0 0 40 40" fill="none" xmlns="http://www.w3.org/2000/svg">
   <circle cx="20" cy="20" r="19.5" stroke="#0F805D"/>
   <path d="M23.2062 19.6906L18.7062 16.6906C18.6499 16.6531 18.5843 16.6315 18.5167 16.6282C18.449 16.6249 18.3817 16.64 18.3219 16.6719C18.262 16.703 18.2118 16.7502 18.1771 16.8081C18.1423 16.866 18.1243 16.9325 18.125 17V23C18.1243 23.0675 18.1423 23.1339 18.1771 23.1919C18.2118 23.2498 18.262 23.2969 18.3219 23.3281C18.3771 23.3567 18.4379 23.3727 18.5 23.375C18.5741 23.3764 18.6466 23.3533 18.7062 23.3094L23.2062 20.3094C23.2585 20.2764 23.3016 20.2308 23.3315 20.1767C23.3614 20.1226 23.377 20.0618 23.377 20C23.377 19.9382 23.3614 19.8774 23.3315 19.8233C23.3016 19.7692 23.2585 19.7235 23.2062 19.6906ZM18.875 22.2969V17.7031L22.325 20L18.875 22.2969ZM29.6094 14.6375C29.5319 14.3517 29.3891 14.0877 29.1923 13.8664C28.9954 13.6452 28.7499 13.4727 28.475 13.3625C25.3062 12.1437 20.2156 12.1625 20 12.1625C19.7844 12.1625 14.6937 12.1437 11.525 13.3625C11.2501 13.4727 11.0046 13.6452 10.8077 13.8664C10.6109 14.0877 10.4681 14.3517 10.3906 14.6375C10.1562 15.5469 9.875 17.2156 9.875 20C9.875 22.7844 10.1562 24.4531 10.3906 25.3625C10.4681 25.6483 10.6109 25.9123 10.8077 26.1335C11.0046 26.3548 11.2501 26.5273 11.525 26.6375C14.6937 27.8562 19.7844 27.8375 20 27.8375H20.0656C20.7125 27.8375 25.4656 27.8 28.475 26.6375C28.7499 26.5273 28.9954 26.3548 29.1923 26.1335C29.3891 25.9123 29.5319 25.6483 29.6094 25.3625C29.8438 24.4531 30.125 22.7844 30.125 20C30.125 17.2156 29.8438 15.5469 29.6094 14.6375ZM28.8781 25.175C28.8331 25.3456 28.7485 25.5033 28.6312 25.6352C28.514 25.7671 28.3673 25.8696 28.2031 25.9344C25.1656 27.1062 20.0562 27.0875 20 27.0875C19.9438 27.0875 14.8344 27.1062 11.7969 25.9344C11.6327 25.8696 11.486 25.7671 11.3688 25.6352C11.2515 25.5033 11.1669 25.3456 11.1219 25.175C10.8969 24.3031 10.625 22.7 10.625 20C10.625 17.3 10.8969 15.6969 11.1219 14.825C11.1669 14.6543 11.2515 14.4967 11.3688 14.3648C11.486 14.2328 11.6327 14.1304 11.7969 14.0656C14.8344 12.8937 19.9438 12.9125 20 12.9125C20.0562 12.9125 25.1656 12.8937 28.2031 14.0656C28.3673 14.1304 28.514 14.2328 28.6312 14.3648C28.7485 14.4967 28.8331 14.6543 28.8781 14.825C29.1031 15.6969 29.375 17.3 29.375 20C29.375 22.7 29.1031 24.3031 28.8781 25.175Z" fill="#0F805D"/>
</svg>
